<svg xmlns="http://www.w3.org/2000/svg"  viewBox="0 0 64 64" width="64px" height="64px"><path fill="#f283a5" d="M13,7h38c3.314,0,6,2.686,6,6v38c0,3.314-2.686,6-6,6H13c-3.314,0-6-2.686-6-6V13	C7,9.686,9.686,7,13,7z"/><path fill="#f7a1c8" d="M11,7h42c2.209,0,4,1.791,4,4l0,0c0,1.657-1.343,3-3,3H10c-1.657,0-3-1.343-3-3l0,0	C7,8.791,8.791,7,11,7z"/><path fill="#8d6c9f" d="M51,6H13c-3.866,0-7,3.134-7,7v38c0,3.866,3.134,7,7,7h38c3.866,0,7-3.134,7-7V13	C58,9.134,54.866,6,51,6z M56,51c0,2.761-2.239,5-5,5H13c-2.761,0-5-2.239-5-5V13c0-2.761,2.239-5,5-5h38c2.761,0,5,2.239,5,5V51z"/><path fill="#8d6c9f" d="M17,16c0.552,0,1-0.448,1-1v-2c0-0.552-0.448-1-1-1s-1,0.448-1,1v2C16,15.552,16.448,16,17,16z M12,12c-0.552,0-1,0.448-1,1v2c0,0.552,0.448,1,1,1s1-0.448,1-1v-2C13,12.448,12.552,12,12,12z M32,16c0.552,0,1-0.448,1-1v-2	c0-0.552-0.448-1-1-1s-1,0.448-1,1v2C31,15.552,31.448,16,32,16z M37,16c0.552,0,1-0.448,1-1v-2c0-0.552-0.448-1-1-1s-1,0.448-1,1v2	C36,15.552,36.448,16,37,16z M42,16c0.552,0,1-0.448,1-1v-2c0-0.552-0.448-1-1-1s-1,0.448-1,1v2C41,15.552,41.448,16,42,16z M47,16	c0.552,0,1-0.448,1-1v-2c0-0.552-0.448-1-1-1s-1,0.448-1,1v2C46,15.552,46.448,16,47,16z M52,16c0.552,0,1-0.448,1-1v-2	c0-0.552-0.448-1-1-1s-1,0.448-1,1v2C51,15.552,51.448,16,52,16z M22,16c0.552,0,1-0.448,1-1v-2c0-0.552-0.448-1-1-1s-1,0.448-1,1v2	C21,15.552,21.448,16,22,16z M27,16c0.552,0,1-0.448,1-1v-2c0-0.552-0.448-1-1-1s-1,0.448-1,1v2C26,15.552,26.448,16,27,16z"/><path fill="#fff" d="M406.213,338.359h2.744v13.507h-2.744V338.359z" transform="translate(-364.098 -319.358)"/><path fill="#fff" d="M-5.432,5.315c0-0.317-0.241-0.561-0.557-0.561c-0.315,0-0.562,0.244-0.562,0.561 v1.127h0.334V5.315c0-0.128,0.102-0.231,0.228-0.231c0.127,0,0.228,0.103,0.228,0.231v1.127h0.329V5.315z" transform="matrix(8.005 0 0 -8.005 68.448 70.566)"/><path fill="#fff" d="M-11.375,15.663h-1.127v1.687h0.342v-1.344h0.785V15.663z" transform="matrix(8.005 0 0 -8.005 128.704 175.484)"/><path fill="#fff" d="M-11.375,7.418h-0.342l-0.443,0.967V7.418h-0.342v1.687h0.342l0.443-0.965v0.965 h0.342V7.418z" transform="matrix(8.005 0 0 -8.005 128.704 91.885)"/><path fill="#fff" d="M-3.341,9.336c-0.315,0-0.562-0.252-0.562-0.557V8.207 c0-0.301,0.248-0.557,0.562-0.557c0.038,0,0.075,0.004,0.11,0.011l0.117-0.352h0.329L-2.94,7.814 c0.091,0.104,0.156,0.246,0.156,0.392v0.572C-2.784,9.084-3.025,9.336-3.341,9.336 M-3.113,8.207c0-0.111-0.101-0.214-0.228-0.214 c-0.126,0-0.228,0.103-0.228,0.214v0.572c0,0.126,0.102,0.227,0.228,0.227c0.127,0,0.228-0.101,0.228-0.227V8.207z" transform="matrix(8.005 0 0 -8.005 47.246 111.334)"/><path fill="#fff" d="M-14.112,9.336c-0.315,0-0.558-0.252-0.558-0.557V8.207 c0-0.301,0.242-0.557,0.558-0.557c0.315,0,0.557,0.256,0.557,0.557v0.572C-13.554,9.084-13.797,9.336-14.112,9.336 M-13.883,8.207 c0-0.111-0.103-0.214-0.229-0.214c-0.126,0-0.229,0.103-0.229,0.214v0.572c0,0.126,0.102,0.227,0.229,0.227 c0.125,0,0.229-0.101,0.229-0.227V8.207z" transform="matrix(8.005 0 0 -8.005 156.447 111.334)"/></svg>